<svg width="500" height="500" viewBox="0 0 500 500" fill="none" xmlns="http://www.w3.org/2000/svg">
<g clip-path="url(#clip0_56_58)">
<path d="M9 0C33.5918 0 58.1836 0 83.5206 0C83.5206 26.9855 83.5206 53.9711 83.5206 81.7744C112.95 81.7744 142.38 81.7744 172.701 81.7744C172.701 54.7888 172.701 27.8033 172.701 0C196.89 0 221.078 0 246 0C246 78.54 246 157.08 246 238C221.811 238 197.623 238 172.701 238C172.701 211.014 172.701 184.029 172.701 156.226C143.271 156.226 113.842 156.226 83.5206 156.226C83.5206 183.211 83.5206 210.197 83.5206 238C58.9288 238 34.337 238 9 238C9 159.46 9 80.92 9 0Z" fill="#DA711F"/>
<path d="M295.314 262C360.221 262 425.127 262 492 262C492 286.569 492 311.138 492 336.451C437.979 336.451 383.957 336.451 328.299 336.451C328.299 365.853 328.299 395.256 328.299 425.549C382.32 425.549 436.342 425.549 492 425.549C492 450.118 492 474.687 492 500C427.094 500 362.188 500 295.314 500C295.314 486.306 295.314 472.612 295.314 458.503C282.011 458.503 268.707 458.503 255 458.503C255 407.351 255 356.199 255 303.497C268.304 303.497 281.608 303.497 295.314 303.497C295.314 289.803 295.314 276.109 295.314 262Z" fill="#F9F9F9"/>
<path d="M9 262C33.5918 262 58.1836 262 83.5206 262C83.5206 315.971 83.5206 369.942 83.5206 425.549C137.139 425.549 190.757 425.549 246 425.549C246 450.118 246 474.687 246 500C181.497 500 116.994 500 50.5361 500C50.5361 486.306 50.5361 472.612 50.5361 458.503C36.8292 458.503 23.1223 458.503 9 458.503C9 393.657 9 328.811 9 262Z" fill="#F8F6F5"/>
<path d="M9 0C33.5918 0 58.1836 0 83.5206 0C83.5206 26.9855 83.5206 53.9711 83.5206 81.7744C112.95 81.7744 142.38 81.7744 172.701 81.7744C172.701 54.7888 172.701 27.8033 172.701 0C196.89 0 221.078 0 246 0C246 78.54 246 157.08 246 238C221.811 238 197.623 238 172.701 238C172.701 211.014 172.701 184.029 172.701 156.226C143.271 156.226 113.842 156.226 83.5206 156.226C83.5206 183.211 83.5206 210.197 83.5206 238C58.9288 238 34.337 238 9 238C9 159.46 9 80.92 9 0ZM26.1031 17.0872C26.1031 84.3496 26.1031 151.612 26.1031 220.913C39.4069 220.913 52.7106 220.913 66.4175 220.913C66.4175 193.927 66.4175 166.942 66.4175 139.138C106.732 139.138 147.046 139.138 188.582 139.138C188.582 166.124 188.582 193.11 188.582 220.913C202.289 220.913 215.996 220.913 230.119 220.913C230.119 153.65 230.119 86.3879 230.119 17.0872C216.412 17.0872 202.705 17.0872 188.582 17.0872C188.582 44.0727 188.582 71.0583 188.582 98.8615C148.268 98.8615 107.954 98.8615 66.4175 98.8615C66.4175 71.876 66.4175 44.8905 66.4175 17.0872C53.1138 17.0872 39.81 17.0872 26.1031 17.0872Z" fill="#F8F8F7"/>
<path d="M66 443C120.12 443 174.24 443 230 443C230 456.2 230 469.4 230 483C175.88 483 121.76 483 66 483C66 469.8 66 456.6 66 443Z" fill="#DB6B1D"/>
<path d="M312 443C365.79 443 419.58 443 475 443C475 456.2 475 469.4 475 483C421.21 483 367.42 483 312 483C312 469.8 312 456.6 312 443Z" fill="#EE2C15"/>
<path d="M312 279C365.79 279 419.58 279 475 279C475 292.53 475 306.06 475 320C421.21 320 367.42 320 312 320C312 306.47 312 292.94 312 279Z" fill="#EE2C15"/>
<path d="M26 279C39.2 279 52.4 279 66 279C66 332.79 66 386.58 66 442C52.8 442 39.6 442 26 442C26 388.21 26 334.42 26 279Z" fill="#D48520"/>
<path d="M271 321C284.2 321 297.4 321 311 321C311 360.93 311 400.86 311 442C297.8 442 284.6 442 271 442C271 402.07 271 362.14 271 321Z" fill="#E6471A"/>
<mask id="mask0_56_58" style="mask-type:luminance" maskUnits="userSpaceOnUse" x="255" y="-1" width="237" height="238">
<rect x="255" y="-1" width="237" height="238" fill="white"/>
<path d="M329 74C358.04 74 387.08 74 417 74C417 89.9123 417 105.825 417 122.219C403.872 122.219 390.745 122.219 377.219 122.219C377.219 135.347 377.219 148.475 377.219 162C361.307 162 345.395 162 329 162C329 132.96 329 103.92 329 74Z" fill="black"/>
</mask>
<g mask="url(#mask0_56_58)">
<path d="M295.314 0C346.514 0 397.713 0 450.464 0C450.464 13.6942 450.464 27.3883 450.464 41.4974C464.171 41.4974 477.878 41.4974 492 41.4974C492 79.3577 492 117.218 492 156.226C478.293 156.226 464.586 156.226 450.464 156.226C450.464 158.642 450.464 161.059 450.464 163.549C464.171 163.549 477.878 163.549 492 163.549C492 188.118 492 212.687 492 238C467.408 238 442.816 238 417.479 238C417.479 224.306 417.479 210.612 417.479 196.503C415.061 196.503 412.642 196.503 410.149 196.503C410.149 210.197 410.149 223.891 410.149 238C372.254 238 334.358 238 295.314 238C295.314 224.306 295.314 210.612 295.314 196.503C282.011 196.503 268.707 196.503 255 196.503C255 145.351 255 94.1992 255 41.4974C268.304 41.4974 281.608 41.4974 295.314 41.4974C295.314 27.8033 295.314 14.1091 295.314 0Z" fill="#F9F8F8"/>
<path d="M312 58C352.26 58 392.52 58 434 58C434 84.62 434 111.24 434 138.667C420.312 138.667 406.623 138.667 392.52 138.667C392.52 151.977 392.52 165.287 392.52 179C365.948 179 339.377 179 312 179C312 139.07 312 99.14 312 58Z" fill="#FCFBFB"/>
<path d="M312 17C352.26 17 392.52 17 434 17C434 30.2 434 43.4 434 57C393.74 57 353.48 57 312 57C312 43.8 312 30.6 312 17Z" fill="#EC3116"/>
<path d="M271 58C284.2 58 297.4 58 311 58C311 97.93 311 137.86 311 179C297.8 179 284.6 179 271 179C271 139.07 271 99.14 271 58Z" fill="#E6471A"/>
<path d="M312 180C338.73 180 365.46 180 393 180C393 193.53 393 207.06 393 221C366.27 221 339.54 221 312 221C312 207.47 312 193.94 312 180Z" fill="#EB3616"/>
<path d="M434 58C447.53 58 461.06 58 475 58C475 85.06 475 112.12 475 140C461.47 140 447.94 140 434 140C434 112.94 434 85.88 434 58Z" fill="#F21C13"/>
<path d="M434 180C447.53 180 461.06 180 475 180C475 193.53 475 207.06 475 221C461.47 221 447.94 221 434 221C434 207.47 434 193.94 434 180Z" fill="#F21C13"/>
<path d="M394 140C407.2 140 420.4 140 434 140C434 152.87 434 165.74 434 179C420.8 179 407.6 179 394 179C394 166.13 394 153.26 394 140Z" fill="#F02917"/>
</g>
</g>
<defs>
<clipPath id="clip0_56_58">
<rect width="500" height="500" fill="white"/>
</clipPath>
</defs>
</svg>
